<mxfile host="Electron" modified="2023-09-13T02:20:27.116Z" agent="Mozilla/5.0 (Windows NT 10.0; Win64; x64) AppleWebKit/537.36 (KHTML, like Gecko) draw.io/21.6.8 Chrome/114.0.5735.289 Electron/25.5.0 Safari/537.36" etag="mGYImZGPr4jpDw52sHOs" version="21.6.8" type="device">
  <diagram id="AWm_jJoB_fNz4sVHrzt7" name="Page-1">
    <mxGraphModel dx="1418" dy="820" grid="1" gridSize="10" guides="1" tooltips="1" connect="1" arrows="1" fold="1" page="1" pageScale="1" pageWidth="1100" pageHeight="850" math="0" shadow="0">
      <root>
        <mxCell id="0" />
        <mxCell id="1" parent="0" />
        <mxCell id="OdYGD2YR-c7lzAbPGmgV-1" value="" style="rounded=0;whiteSpace=wrap;html=1;" parent="1" vertex="1">
          <mxGeometry x="20" y="20" width="1060" height="810" as="geometry" />
        </mxCell>
        <mxCell id="q6rLTLklX5a6nk730e43-475" value="" style="rounded=1;whiteSpace=wrap;html=1;" parent="1" vertex="1">
          <mxGeometry x="180" y="50" width="870" height="160" as="geometry" />
        </mxCell>
        <mxCell id="q6rLTLklX5a6nk730e43-476" value="P" style="rounded=0;whiteSpace=wrap;html=1;fillColor=#f8cecc;strokeColor=#b85450;" parent="1" vertex="1">
          <mxGeometry x="200" y="140" width="20" height="30" as="geometry" />
        </mxCell>
        <mxCell id="q6rLTLklX5a6nk730e43-477" value="" style="rounded=0;whiteSpace=wrap;html=1;" parent="1" vertex="1">
          <mxGeometry x="220" y="140" width="50" height="30" as="geometry" />
        </mxCell>
        <mxCell id="q6rLTLklX5a6nk730e43-478" value="N" style="rounded=0;whiteSpace=wrap;html=1;" parent="1" vertex="1">
          <mxGeometry x="270" y="140" width="20" height="30" as="geometry" />
        </mxCell>
        <mxCell id="q6rLTLklX5a6nk730e43-479" value="P" style="rounded=0;whiteSpace=wrap;html=1;" parent="1" vertex="1">
          <mxGeometry x="330" y="140" width="20" height="30" as="geometry" />
        </mxCell>
        <mxCell id="q6rLTLklX5a6nk730e43-480" value="Head" style="rounded=0;whiteSpace=wrap;html=1;fillColor=#dae8fc;strokeColor=#6c8ebf;" parent="1" vertex="1">
          <mxGeometry x="350" y="140" width="50" height="30" as="geometry" />
        </mxCell>
        <mxCell id="q6rLTLklX5a6nk730e43-481" value="N" style="rounded=0;whiteSpace=wrap;html=1;" parent="1" vertex="1">
          <mxGeometry x="400" y="140" width="20" height="30" as="geometry" />
        </mxCell>
        <mxCell id="q6rLTLklX5a6nk730e43-482" value="P" style="rounded=0;whiteSpace=wrap;html=1;" parent="1" vertex="1">
          <mxGeometry x="450" y="140" width="20" height="30" as="geometry" />
        </mxCell>
        <mxCell id="q6rLTLklX5a6nk730e43-483" value="" style="rounded=0;whiteSpace=wrap;html=1;fillColor=#dae8fc;strokeColor=#6c8ebf;" parent="1" vertex="1">
          <mxGeometry x="470" y="140" width="50" height="30" as="geometry" />
        </mxCell>
        <mxCell id="q6rLTLklX5a6nk730e43-484" value="N" style="rounded=0;whiteSpace=wrap;html=1;" parent="1" vertex="1">
          <mxGeometry x="520" y="140" width="20" height="30" as="geometry" />
        </mxCell>
        <mxCell id="q6rLTLklX5a6nk730e43-485" value="N" style="rounded=0;whiteSpace=wrap;html=1;" parent="1" vertex="1">
          <mxGeometry x="270" y="140" width="20" height="30" as="geometry" />
        </mxCell>
        <mxCell id="q6rLTLklX5a6nk730e43-486" value="P" style="rounded=0;whiteSpace=wrap;html=1;" parent="1" vertex="1">
          <mxGeometry x="330" y="140" width="20" height="30" as="geometry" />
        </mxCell>
        <mxCell id="q6rLTLklX5a6nk730e43-487" value="N" style="rounded=0;whiteSpace=wrap;html=1;" parent="1" vertex="1">
          <mxGeometry x="400" y="140" width="20" height="30" as="geometry" />
        </mxCell>
        <mxCell id="q6rLTLklX5a6nk730e43-488" value="P" style="rounded=0;whiteSpace=wrap;html=1;" parent="1" vertex="1">
          <mxGeometry x="450" y="140" width="20" height="30" as="geometry" />
        </mxCell>
        <mxCell id="q6rLTLklX5a6nk730e43-489" value="N" style="rounded=0;whiteSpace=wrap;html=1;fillColor=#f8cecc;strokeColor=#b85450;" parent="1" vertex="1">
          <mxGeometry x="270" y="140" width="20" height="30" as="geometry" />
        </mxCell>
        <mxCell id="q6rLTLklX5a6nk730e43-490" value="P" style="rounded=0;whiteSpace=wrap;html=1;fillColor=#f8cecc;strokeColor=#b85450;" parent="1" vertex="1">
          <mxGeometry x="330" y="140" width="20" height="30" as="geometry" />
        </mxCell>
        <mxCell id="q6rLTLklX5a6nk730e43-491" style="edgeStyle=orthogonalEdgeStyle;rounded=0;orthogonalLoop=1;jettySize=auto;html=1;exitX=0.5;exitY=0;exitDx=0;exitDy=0;entryX=0.5;entryY=0;entryDx=0;entryDy=0;" parent="1" source="q6rLTLklX5a6nk730e43-492" target="q6rLTLklX5a6nk730e43-483" edge="1">
          <mxGeometry relative="1" as="geometry" />
        </mxCell>
        <mxCell id="q6rLTLklX5a6nk730e43-492" value="N" style="rounded=0;whiteSpace=wrap;html=1;fillColor=#d5e8d4;strokeColor=#82b366;" parent="1" vertex="1">
          <mxGeometry x="400" y="140" width="20" height="30" as="geometry" />
        </mxCell>
        <mxCell id="q6rLTLklX5a6nk730e43-493" style="edgeStyle=orthogonalEdgeStyle;rounded=0;orthogonalLoop=1;jettySize=auto;html=1;exitX=0.5;exitY=1;exitDx=0;exitDy=0;entryX=0.5;entryY=1;entryDx=0;entryDy=0;" parent="1" source="q6rLTLklX5a6nk730e43-494" target="q6rLTLklX5a6nk730e43-480" edge="1">
          <mxGeometry relative="1" as="geometry" />
        </mxCell>
        <mxCell id="q6rLTLklX5a6nk730e43-494" value="P" style="rounded=0;whiteSpace=wrap;html=1;fillColor=#d5e8d4;strokeColor=#82b366;" parent="1" vertex="1">
          <mxGeometry x="450" y="140" width="20" height="30" as="geometry" />
        </mxCell>
        <mxCell id="q6rLTLklX5a6nk730e43-495" style="edgeStyle=orthogonalEdgeStyle;rounded=0;orthogonalLoop=1;jettySize=auto;html=1;exitX=0.5;exitY=0;exitDx=0;exitDy=0;entryX=0.5;entryY=0;entryDx=0;entryDy=0;" parent="1" source="q6rLTLklX5a6nk730e43-496" target="q6rLTLklX5a6nk730e43-502" edge="1">
          <mxGeometry relative="1" as="geometry" />
        </mxCell>
        <mxCell id="q6rLTLklX5a6nk730e43-496" value="N" style="rounded=0;whiteSpace=wrap;html=1;fillColor=#d5e8d4;strokeColor=#82b366;" parent="1" vertex="1">
          <mxGeometry x="520" y="140" width="20" height="30" as="geometry" />
        </mxCell>
        <mxCell id="q6rLTLklX5a6nk730e43-530" style="edgeStyle=orthogonalEdgeStyle;rounded=0;orthogonalLoop=1;jettySize=auto;html=1;exitX=0.5;exitY=0;exitDx=0;exitDy=0;entryX=0.5;entryY=0;entryDx=0;entryDy=0;fillColor=#f8cecc;strokeColor=#b85450;" parent="1" source="q6rLTLklX5a6nk730e43-497" target="q6rLTLklX5a6nk730e43-515" edge="1">
          <mxGeometry relative="1" as="geometry">
            <Array as="points">
              <mxPoint x="280" y="70" />
              <mxPoint x="855" y="70" />
            </Array>
          </mxGeometry>
        </mxCell>
        <mxCell id="q6rLTLklX5a6nk730e43-497" value="N" style="rounded=0;whiteSpace=wrap;html=1;fillColor=#d5e8d4;strokeColor=#82b366;" parent="1" vertex="1">
          <mxGeometry x="270" y="140" width="20" height="30" as="geometry" />
        </mxCell>
        <mxCell id="q6rLTLklX5a6nk730e43-498" value="P" style="rounded=0;whiteSpace=wrap;html=1;" parent="1" vertex="1">
          <mxGeometry x="570" y="140" width="20" height="30" as="geometry" />
        </mxCell>
        <mxCell id="q6rLTLklX5a6nk730e43-499" value="" style="rounded=0;whiteSpace=wrap;html=1;" parent="1" vertex="1">
          <mxGeometry x="590" y="140" width="50" height="30" as="geometry" />
        </mxCell>
        <mxCell id="q6rLTLklX5a6nk730e43-500" value="N" style="rounded=0;whiteSpace=wrap;html=1;" parent="1" vertex="1">
          <mxGeometry x="640" y="140" width="20" height="30" as="geometry" />
        </mxCell>
        <mxCell id="q6rLTLklX5a6nk730e43-501" value="P" style="rounded=0;whiteSpace=wrap;html=1;" parent="1" vertex="1">
          <mxGeometry x="690" y="140" width="20" height="30" as="geometry" />
        </mxCell>
        <mxCell id="q6rLTLklX5a6nk730e43-502" value="Tail" style="rounded=0;whiteSpace=wrap;html=1;fillColor=#dae8fc;strokeColor=#6c8ebf;" parent="1" vertex="1">
          <mxGeometry x="710" y="140" width="50" height="30" as="geometry" />
        </mxCell>
        <mxCell id="q6rLTLklX5a6nk730e43-503" value="N" style="rounded=0;whiteSpace=wrap;html=1;" parent="1" vertex="1">
          <mxGeometry x="760" y="140" width="20" height="30" as="geometry" />
        </mxCell>
        <mxCell id="q6rLTLklX5a6nk730e43-504" value="P" style="rounded=0;whiteSpace=wrap;html=1;" parent="1" vertex="1">
          <mxGeometry x="570" y="140" width="20" height="30" as="geometry" />
        </mxCell>
        <mxCell id="q6rLTLklX5a6nk730e43-505" value="N" style="rounded=0;whiteSpace=wrap;html=1;" parent="1" vertex="1">
          <mxGeometry x="640" y="140" width="20" height="30" as="geometry" />
        </mxCell>
        <mxCell id="q6rLTLklX5a6nk730e43-506" value="P" style="rounded=0;whiteSpace=wrap;html=1;" parent="1" vertex="1">
          <mxGeometry x="690" y="140" width="20" height="30" as="geometry" />
        </mxCell>
        <mxCell id="q6rLTLklX5a6nk730e43-507" value="P" style="rounded=0;whiteSpace=wrap;html=1;fillColor=#f8cecc;strokeColor=#b85450;" parent="1" vertex="1">
          <mxGeometry x="570" y="140" width="20" height="30" as="geometry" />
        </mxCell>
        <mxCell id="q6rLTLklX5a6nk730e43-508" style="edgeStyle=orthogonalEdgeStyle;rounded=0;orthogonalLoop=1;jettySize=auto;html=1;exitX=0.5;exitY=0;exitDx=0;exitDy=0;entryX=0.5;entryY=0;entryDx=0;entryDy=0;" parent="1" source="q6rLTLklX5a6nk730e43-509" target="q6rLTLklX5a6nk730e43-477" edge="1">
          <mxGeometry relative="1" as="geometry">
            <Array as="points">
              <mxPoint x="650" y="90" />
              <mxPoint x="245" y="90" />
            </Array>
          </mxGeometry>
        </mxCell>
        <mxCell id="q6rLTLklX5a6nk730e43-509" value="N" style="rounded=0;whiteSpace=wrap;html=1;fillColor=#d5e8d4;strokeColor=#82b366;" parent="1" vertex="1">
          <mxGeometry x="640" y="140" width="20" height="30" as="geometry" />
        </mxCell>
        <mxCell id="q6rLTLklX5a6nk730e43-510" style="edgeStyle=orthogonalEdgeStyle;rounded=0;orthogonalLoop=1;jettySize=auto;html=1;exitX=0.5;exitY=1;exitDx=0;exitDy=0;entryX=0.5;entryY=1;entryDx=0;entryDy=0;" parent="1" source="q6rLTLklX5a6nk730e43-511" target="q6rLTLklX5a6nk730e43-483" edge="1">
          <mxGeometry relative="1" as="geometry" />
        </mxCell>
        <mxCell id="q6rLTLklX5a6nk730e43-511" value="P" style="rounded=0;whiteSpace=wrap;html=1;fillColor=#d5e8d4;strokeColor=#82b366;" parent="1" vertex="1">
          <mxGeometry x="690" y="140" width="20" height="30" as="geometry" />
        </mxCell>
        <mxCell id="q6rLTLklX5a6nk730e43-513" value="N" style="rounded=0;whiteSpace=wrap;html=1;fillColor=#d5e8d4;strokeColor=#82b366;" parent="1" vertex="1">
          <mxGeometry x="760" y="140" width="20" height="30" as="geometry" />
        </mxCell>
        <mxCell id="q6rLTLklX5a6nk730e43-514" value="P" style="rounded=0;whiteSpace=wrap;html=1;" parent="1" vertex="1">
          <mxGeometry x="810" y="140" width="20" height="30" as="geometry" />
        </mxCell>
        <mxCell id="q6rLTLklX5a6nk730e43-515" value="End" style="rounded=0;whiteSpace=wrap;html=1;" parent="1" vertex="1">
          <mxGeometry x="830" y="140" width="50" height="30" as="geometry" />
        </mxCell>
        <mxCell id="q6rLTLklX5a6nk730e43-516" value="N" style="rounded=0;whiteSpace=wrap;html=1;" parent="1" vertex="1">
          <mxGeometry x="880" y="140" width="20" height="30" as="geometry" />
        </mxCell>
        <mxCell id="q6rLTLklX5a6nk730e43-517" value="P" style="rounded=0;whiteSpace=wrap;html=1;" parent="1" vertex="1">
          <mxGeometry x="930" y="140" width="20" height="30" as="geometry" />
        </mxCell>
        <mxCell id="q6rLTLklX5a6nk730e43-518" value="" style="rounded=0;whiteSpace=wrap;html=1;" parent="1" vertex="1">
          <mxGeometry x="950" y="140" width="50" height="30" as="geometry" />
        </mxCell>
        <mxCell id="q6rLTLklX5a6nk730e43-519" value="N" style="rounded=0;whiteSpace=wrap;html=1;" parent="1" vertex="1">
          <mxGeometry x="1000" y="140" width="20" height="30" as="geometry" />
        </mxCell>
        <mxCell id="q6rLTLklX5a6nk730e43-520" value="P" style="rounded=0;whiteSpace=wrap;html=1;" parent="1" vertex="1">
          <mxGeometry x="810" y="140" width="20" height="30" as="geometry" />
        </mxCell>
        <mxCell id="q6rLTLklX5a6nk730e43-521" value="N" style="rounded=0;whiteSpace=wrap;html=1;" parent="1" vertex="1">
          <mxGeometry x="880" y="140" width="20" height="30" as="geometry" />
        </mxCell>
        <mxCell id="q6rLTLklX5a6nk730e43-522" value="P" style="rounded=0;whiteSpace=wrap;html=1;" parent="1" vertex="1">
          <mxGeometry x="930" y="140" width="20" height="30" as="geometry" />
        </mxCell>
        <mxCell id="q6rLTLklX5a6nk730e43-524" value="P" style="rounded=0;whiteSpace=wrap;html=1;fillColor=#f8cecc;strokeColor=#b85450;" parent="1" vertex="1">
          <mxGeometry x="810" y="140" width="20" height="30" as="geometry" />
        </mxCell>
        <mxCell id="q6rLTLklX5a6nk730e43-525" style="edgeStyle=orthogonalEdgeStyle;rounded=0;orthogonalLoop=1;jettySize=auto;html=1;exitX=0.5;exitY=0;exitDx=0;exitDy=0;entryX=0.5;entryY=0;entryDx=0;entryDy=0;fillColor=#d5e8d4;strokeColor=#82b366;" parent="1" source="q6rLTLklX5a6nk730e43-513" target="q6rLTLklX5a6nk730e43-518" edge="1">
          <mxGeometry relative="1" as="geometry" />
        </mxCell>
        <mxCell id="q6rLTLklX5a6nk730e43-526" value="N" style="rounded=0;whiteSpace=wrap;html=1;fillColor=#f8cecc;strokeColor=#b85450;" parent="1" vertex="1">
          <mxGeometry x="880" y="140" width="20" height="30" as="geometry" />
        </mxCell>
        <mxCell id="q6rLTLklX5a6nk730e43-527" value="P" style="rounded=0;whiteSpace=wrap;html=1;fillColor=#f8cecc;strokeColor=#b85450;" parent="1" vertex="1">
          <mxGeometry x="930" y="140" width="20" height="30" as="geometry" />
        </mxCell>
        <mxCell id="q6rLTLklX5a6nk730e43-528" style="edgeStyle=orthogonalEdgeStyle;rounded=0;orthogonalLoop=1;jettySize=auto;html=1;exitX=0.5;exitY=0;exitDx=0;exitDy=0;entryX=0.5;entryY=0;entryDx=0;entryDy=0;" parent="1" source="q6rLTLklX5a6nk730e43-529" target="q6rLTLklX5a6nk730e43-499" edge="1">
          <mxGeometry relative="1" as="geometry">
            <Array as="points">
              <mxPoint x="1010" y="100" />
              <mxPoint x="615" y="100" />
            </Array>
          </mxGeometry>
        </mxCell>
        <mxCell id="q6rLTLklX5a6nk730e43-529" value="N" style="rounded=0;whiteSpace=wrap;html=1;fillColor=#d5e8d4;strokeColor=#82b366;" parent="1" vertex="1">
          <mxGeometry x="1000" y="140" width="20" height="30" as="geometry" />
        </mxCell>
        <mxCell id="q6rLTLklX5a6nk730e43-531" value="" style="rounded=1;whiteSpace=wrap;html=1;" parent="1" vertex="1">
          <mxGeometry x="180" y="450" width="870" height="160" as="geometry" />
        </mxCell>
        <mxCell id="q6rLTLklX5a6nk730e43-532" value="P" style="rounded=0;whiteSpace=wrap;html=1;fillColor=#f8cecc;strokeColor=#b85450;" parent="1" vertex="1">
          <mxGeometry x="200" y="560" width="20" height="30" as="geometry" />
        </mxCell>
        <mxCell id="q6rLTLklX5a6nk730e43-533" value="" style="rounded=0;whiteSpace=wrap;html=1;" parent="1" vertex="1">
          <mxGeometry x="220" y="560" width="50" height="30" as="geometry" />
        </mxCell>
        <mxCell id="q6rLTLklX5a6nk730e43-534" value="N" style="rounded=0;whiteSpace=wrap;html=1;" parent="1" vertex="1">
          <mxGeometry x="270" y="560" width="20" height="30" as="geometry" />
        </mxCell>
        <mxCell id="q6rLTLklX5a6nk730e43-535" value="P" style="rounded=0;whiteSpace=wrap;html=1;" parent="1" vertex="1">
          <mxGeometry x="330" y="560" width="20" height="30" as="geometry" />
        </mxCell>
        <mxCell id="q6rLTLklX5a6nk730e43-536" value="" style="rounded=0;whiteSpace=wrap;html=1;" parent="1" vertex="1">
          <mxGeometry x="350" y="560" width="50" height="30" as="geometry" />
        </mxCell>
        <mxCell id="q6rLTLklX5a6nk730e43-537" value="N" style="rounded=0;whiteSpace=wrap;html=1;" parent="1" vertex="1">
          <mxGeometry x="400" y="560" width="20" height="30" as="geometry" />
        </mxCell>
        <mxCell id="q6rLTLklX5a6nk730e43-538" value="P" style="rounded=0;whiteSpace=wrap;html=1;" parent="1" vertex="1">
          <mxGeometry x="450" y="560" width="20" height="30" as="geometry" />
        </mxCell>
        <mxCell id="q6rLTLklX5a6nk730e43-539" value="End" style="rounded=0;whiteSpace=wrap;html=1;" parent="1" vertex="1">
          <mxGeometry x="470" y="560" width="50" height="30" as="geometry" />
        </mxCell>
        <mxCell id="q6rLTLklX5a6nk730e43-540" value="N" style="rounded=0;whiteSpace=wrap;html=1;" parent="1" vertex="1">
          <mxGeometry x="520" y="560" width="20" height="30" as="geometry" />
        </mxCell>
        <mxCell id="q6rLTLklX5a6nk730e43-541" value="N" style="rounded=0;whiteSpace=wrap;html=1;" parent="1" vertex="1">
          <mxGeometry x="270" y="560" width="20" height="30" as="geometry" />
        </mxCell>
        <mxCell id="q6rLTLklX5a6nk730e43-542" value="P" style="rounded=0;whiteSpace=wrap;html=1;" parent="1" vertex="1">
          <mxGeometry x="330" y="560" width="20" height="30" as="geometry" />
        </mxCell>
        <mxCell id="q6rLTLklX5a6nk730e43-543" value="N" style="rounded=0;whiteSpace=wrap;html=1;" parent="1" vertex="1">
          <mxGeometry x="400" y="560" width="20" height="30" as="geometry" />
        </mxCell>
        <mxCell id="q6rLTLklX5a6nk730e43-544" value="P" style="rounded=0;whiteSpace=wrap;html=1;" parent="1" vertex="1">
          <mxGeometry x="450" y="560" width="20" height="30" as="geometry" />
        </mxCell>
        <mxCell id="q6rLTLklX5a6nk730e43-545" value="N" style="rounded=0;whiteSpace=wrap;html=1;fillColor=#f8cecc;strokeColor=#b85450;" parent="1" vertex="1">
          <mxGeometry x="270" y="560" width="20" height="30" as="geometry" />
        </mxCell>
        <mxCell id="q6rLTLklX5a6nk730e43-546" value="P" style="rounded=0;whiteSpace=wrap;html=1;fillColor=#f8cecc;strokeColor=#b85450;" parent="1" vertex="1">
          <mxGeometry x="330" y="560" width="20" height="30" as="geometry" />
        </mxCell>
        <mxCell id="q6rLTLklX5a6nk730e43-587" style="edgeStyle=orthogonalEdgeStyle;rounded=0;orthogonalLoop=1;jettySize=auto;html=1;exitX=0.5;exitY=0;exitDx=0;exitDy=0;entryX=0.5;entryY=0;entryDx=0;entryDy=0;fillColor=#f8cecc;strokeColor=#b85450;" parent="1" source="q6rLTLklX5a6nk730e43-548" target="q6rLTLklX5a6nk730e43-539" edge="1">
          <mxGeometry relative="1" as="geometry">
            <Array as="points">
              <mxPoint x="410" y="540" />
              <mxPoint x="495" y="540" />
            </Array>
          </mxGeometry>
        </mxCell>
        <mxCell id="q6rLTLklX5a6nk730e43-548" value="N" style="rounded=0;whiteSpace=wrap;html=1;fillColor=#d5e8d4;strokeColor=#82b366;" parent="1" vertex="1">
          <mxGeometry x="400" y="560" width="20" height="30" as="geometry" />
        </mxCell>
        <mxCell id="q6rLTLklX5a6nk730e43-550" value="P" style="rounded=0;whiteSpace=wrap;html=1;fillColor=#f8cecc;strokeColor=#b85450;" parent="1" vertex="1">
          <mxGeometry x="450" y="560" width="20" height="30" as="geometry" />
        </mxCell>
        <mxCell id="q6rLTLklX5a6nk730e43-552" value="N" style="rounded=0;whiteSpace=wrap;html=1;fillColor=#f8cecc;strokeColor=#b85450;" parent="1" vertex="1">
          <mxGeometry x="520" y="560" width="20" height="30" as="geometry" />
        </mxCell>
        <mxCell id="q6rLTLklX5a6nk730e43-553" style="edgeStyle=orthogonalEdgeStyle;rounded=0;orthogonalLoop=1;jettySize=auto;html=1;exitX=0.5;exitY=0;exitDx=0;exitDy=0;entryX=0.5;entryY=0;entryDx=0;entryDy=0;" parent="1" source="q6rLTLklX5a6nk730e43-554" target="q6rLTLklX5a6nk730e43-571" edge="1">
          <mxGeometry relative="1" as="geometry">
            <Array as="points">
              <mxPoint x="280" y="490" />
              <mxPoint x="855" y="490" />
            </Array>
          </mxGeometry>
        </mxCell>
        <mxCell id="q6rLTLklX5a6nk730e43-554" value="N" style="rounded=0;whiteSpace=wrap;html=1;fillColor=#d5e8d4;strokeColor=#82b366;" parent="1" vertex="1">
          <mxGeometry x="270" y="560" width="20" height="30" as="geometry" />
        </mxCell>
        <mxCell id="q6rLTLklX5a6nk730e43-555" value="P" style="rounded=0;whiteSpace=wrap;html=1;" parent="1" vertex="1">
          <mxGeometry x="570" y="560" width="20" height="30" as="geometry" />
        </mxCell>
        <mxCell id="q6rLTLklX5a6nk730e43-556" value="" style="rounded=0;whiteSpace=wrap;html=1;" parent="1" vertex="1">
          <mxGeometry x="590" y="560" width="50" height="30" as="geometry" />
        </mxCell>
        <mxCell id="q6rLTLklX5a6nk730e43-557" value="N" style="rounded=0;whiteSpace=wrap;html=1;" parent="1" vertex="1">
          <mxGeometry x="640" y="560" width="20" height="30" as="geometry" />
        </mxCell>
        <mxCell id="q6rLTLklX5a6nk730e43-558" value="P" style="rounded=0;whiteSpace=wrap;html=1;" parent="1" vertex="1">
          <mxGeometry x="690" y="560" width="20" height="30" as="geometry" />
        </mxCell>
        <mxCell id="q6rLTLklX5a6nk730e43-559" value="Head&lt;br&gt;Tail" style="rounded=0;whiteSpace=wrap;html=1;fillColor=#dae8fc;strokeColor=#6c8ebf;" parent="1" vertex="1">
          <mxGeometry x="710" y="560" width="50" height="30" as="geometry" />
        </mxCell>
        <mxCell id="q6rLTLklX5a6nk730e43-560" value="N" style="rounded=0;whiteSpace=wrap;html=1;" parent="1" vertex="1">
          <mxGeometry x="760" y="560" width="20" height="30" as="geometry" />
        </mxCell>
        <mxCell id="q6rLTLklX5a6nk730e43-561" value="P" style="rounded=0;whiteSpace=wrap;html=1;" parent="1" vertex="1">
          <mxGeometry x="570" y="560" width="20" height="30" as="geometry" />
        </mxCell>
        <mxCell id="q6rLTLklX5a6nk730e43-562" value="N" style="rounded=0;whiteSpace=wrap;html=1;" parent="1" vertex="1">
          <mxGeometry x="640" y="560" width="20" height="30" as="geometry" />
        </mxCell>
        <mxCell id="q6rLTLklX5a6nk730e43-563" value="P" style="rounded=0;whiteSpace=wrap;html=1;" parent="1" vertex="1">
          <mxGeometry x="690" y="560" width="20" height="30" as="geometry" />
        </mxCell>
        <mxCell id="q6rLTLklX5a6nk730e43-564" value="P" style="rounded=0;whiteSpace=wrap;html=1;fillColor=#f8cecc;strokeColor=#b85450;" parent="1" vertex="1">
          <mxGeometry x="570" y="560" width="20" height="30" as="geometry" />
        </mxCell>
        <mxCell id="q6rLTLklX5a6nk730e43-565" style="edgeStyle=orthogonalEdgeStyle;rounded=0;orthogonalLoop=1;jettySize=auto;html=1;exitX=0.5;exitY=0;exitDx=0;exitDy=0;entryX=0.5;entryY=0;entryDx=0;entryDy=0;" parent="1" source="q6rLTLklX5a6nk730e43-566" target="q6rLTLklX5a6nk730e43-533" edge="1">
          <mxGeometry relative="1" as="geometry">
            <Array as="points">
              <mxPoint x="650" y="510" />
              <mxPoint x="245" y="510" />
            </Array>
          </mxGeometry>
        </mxCell>
        <mxCell id="q6rLTLklX5a6nk730e43-566" value="N" style="rounded=0;whiteSpace=wrap;html=1;fillColor=#d5e8d4;strokeColor=#82b366;" parent="1" vertex="1">
          <mxGeometry x="640" y="560" width="20" height="30" as="geometry" />
        </mxCell>
        <mxCell id="q6rLTLklX5a6nk730e43-568" value="P" style="rounded=0;whiteSpace=wrap;html=1;fillColor=#f8cecc;strokeColor=#b85450;" parent="1" vertex="1">
          <mxGeometry x="690" y="560" width="20" height="30" as="geometry" />
        </mxCell>
        <mxCell id="q6rLTLklX5a6nk730e43-569" value="N" style="rounded=0;whiteSpace=wrap;html=1;fillColor=#d5e8d4;strokeColor=#82b366;" parent="1" vertex="1">
          <mxGeometry x="760" y="560" width="20" height="30" as="geometry" />
        </mxCell>
        <mxCell id="q6rLTLklX5a6nk730e43-570" value="P" style="rounded=0;whiteSpace=wrap;html=1;" parent="1" vertex="1">
          <mxGeometry x="810" y="560" width="20" height="30" as="geometry" />
        </mxCell>
        <mxCell id="q6rLTLklX5a6nk730e43-571" value="" style="rounded=0;whiteSpace=wrap;html=1;" parent="1" vertex="1">
          <mxGeometry x="830" y="560" width="50" height="30" as="geometry" />
        </mxCell>
        <mxCell id="q6rLTLklX5a6nk730e43-572" value="N" style="rounded=0;whiteSpace=wrap;html=1;" parent="1" vertex="1">
          <mxGeometry x="880" y="560" width="20" height="30" as="geometry" />
        </mxCell>
        <mxCell id="q6rLTLklX5a6nk730e43-573" value="P" style="rounded=0;whiteSpace=wrap;html=1;" parent="1" vertex="1">
          <mxGeometry x="930" y="560" width="20" height="30" as="geometry" />
        </mxCell>
        <mxCell id="q6rLTLklX5a6nk730e43-574" value="" style="rounded=0;whiteSpace=wrap;html=1;" parent="1" vertex="1">
          <mxGeometry x="950" y="560" width="50" height="30" as="geometry" />
        </mxCell>
        <mxCell id="q6rLTLklX5a6nk730e43-575" value="N" style="rounded=0;whiteSpace=wrap;html=1;" parent="1" vertex="1">
          <mxGeometry x="1000" y="560" width="20" height="30" as="geometry" />
        </mxCell>
        <mxCell id="q6rLTLklX5a6nk730e43-576" value="P" style="rounded=0;whiteSpace=wrap;html=1;" parent="1" vertex="1">
          <mxGeometry x="810" y="560" width="20" height="30" as="geometry" />
        </mxCell>
        <mxCell id="q6rLTLklX5a6nk730e43-577" value="N" style="rounded=0;whiteSpace=wrap;html=1;" parent="1" vertex="1">
          <mxGeometry x="880" y="560" width="20" height="30" as="geometry" />
        </mxCell>
        <mxCell id="q6rLTLklX5a6nk730e43-578" value="P" style="rounded=0;whiteSpace=wrap;html=1;" parent="1" vertex="1">
          <mxGeometry x="930" y="560" width="20" height="30" as="geometry" />
        </mxCell>
        <mxCell id="q6rLTLklX5a6nk730e43-579" value="P" style="rounded=0;whiteSpace=wrap;html=1;fillColor=#f8cecc;strokeColor=#b85450;" parent="1" vertex="1">
          <mxGeometry x="810" y="560" width="20" height="30" as="geometry" />
        </mxCell>
        <mxCell id="q6rLTLklX5a6nk730e43-580" style="edgeStyle=orthogonalEdgeStyle;rounded=0;orthogonalLoop=1;jettySize=auto;html=1;exitX=0.5;exitY=0;exitDx=0;exitDy=0;entryX=0.5;entryY=0;entryDx=0;entryDy=0;" parent="1" source="q6rLTLklX5a6nk730e43-569" target="q6rLTLklX5a6nk730e43-574" edge="1">
          <mxGeometry relative="1" as="geometry" />
        </mxCell>
        <mxCell id="q6rLTLklX5a6nk730e43-586" style="edgeStyle=orthogonalEdgeStyle;rounded=0;orthogonalLoop=1;jettySize=auto;html=1;exitX=0.5;exitY=0;exitDx=0;exitDy=0;entryX=0.5;entryY=0;entryDx=0;entryDy=0;" parent="1" source="q6rLTLklX5a6nk730e43-581" target="q6rLTLklX5a6nk730e43-536" edge="1">
          <mxGeometry relative="1" as="geometry">
            <Array as="points">
              <mxPoint x="890" y="470" />
              <mxPoint x="375" y="470" />
            </Array>
          </mxGeometry>
        </mxCell>
        <mxCell id="q6rLTLklX5a6nk730e43-581" value="N" style="rounded=0;whiteSpace=wrap;html=1;fillColor=#d5e8d4;strokeColor=#82b366;" parent="1" vertex="1">
          <mxGeometry x="880" y="560" width="20" height="30" as="geometry" />
        </mxCell>
        <mxCell id="q6rLTLklX5a6nk730e43-582" value="P" style="rounded=0;whiteSpace=wrap;html=1;fillColor=#f8cecc;strokeColor=#b85450;" parent="1" vertex="1">
          <mxGeometry x="930" y="560" width="20" height="30" as="geometry" />
        </mxCell>
        <mxCell id="q6rLTLklX5a6nk730e43-583" style="edgeStyle=orthogonalEdgeStyle;rounded=0;orthogonalLoop=1;jettySize=auto;html=1;exitX=0.5;exitY=0;exitDx=0;exitDy=0;entryX=0.5;entryY=0;entryDx=0;entryDy=0;" parent="1" source="q6rLTLklX5a6nk730e43-584" target="q6rLTLklX5a6nk730e43-556" edge="1">
          <mxGeometry relative="1" as="geometry">
            <Array as="points">
              <mxPoint x="1010" y="520" />
              <mxPoint x="615" y="520" />
            </Array>
          </mxGeometry>
        </mxCell>
        <mxCell id="q6rLTLklX5a6nk730e43-584" value="N" style="rounded=0;whiteSpace=wrap;html=1;fillColor=#d5e8d4;strokeColor=#82b366;" parent="1" vertex="1">
          <mxGeometry x="1000" y="560" width="20" height="30" as="geometry" />
        </mxCell>
        <mxCell id="q6rLTLklX5a6nk730e43-588" value="" style="rounded=1;whiteSpace=wrap;html=1;" parent="1" vertex="1">
          <mxGeometry x="180" y="640" width="870" height="160" as="geometry" />
        </mxCell>
        <mxCell id="q6rLTLklX5a6nk730e43-589" value="P" style="rounded=0;whiteSpace=wrap;html=1;fillColor=#f8cecc;strokeColor=#b85450;" parent="1" vertex="1">
          <mxGeometry x="200" y="750" width="20" height="30" as="geometry" />
        </mxCell>
        <mxCell id="q6rLTLklX5a6nk730e43-590" value="" style="rounded=0;whiteSpace=wrap;html=1;" parent="1" vertex="1">
          <mxGeometry x="220" y="750" width="50" height="30" as="geometry" />
        </mxCell>
        <mxCell id="q6rLTLklX5a6nk730e43-591" value="N" style="rounded=0;whiteSpace=wrap;html=1;" parent="1" vertex="1">
          <mxGeometry x="270" y="750" width="20" height="30" as="geometry" />
        </mxCell>
        <mxCell id="q6rLTLklX5a6nk730e43-592" value="P" style="rounded=0;whiteSpace=wrap;html=1;" parent="1" vertex="1">
          <mxGeometry x="330" y="750" width="20" height="30" as="geometry" />
        </mxCell>
        <mxCell id="q6rLTLklX5a6nk730e43-593" value="" style="rounded=0;whiteSpace=wrap;html=1;" parent="1" vertex="1">
          <mxGeometry x="350" y="750" width="50" height="30" as="geometry" />
        </mxCell>
        <mxCell id="q6rLTLklX5a6nk730e43-594" value="N" style="rounded=0;whiteSpace=wrap;html=1;" parent="1" vertex="1">
          <mxGeometry x="400" y="750" width="20" height="30" as="geometry" />
        </mxCell>
        <mxCell id="q6rLTLklX5a6nk730e43-595" value="P" style="rounded=0;whiteSpace=wrap;html=1;" parent="1" vertex="1">
          <mxGeometry x="450" y="750" width="20" height="30" as="geometry" />
        </mxCell>
        <mxCell id="q6rLTLklX5a6nk730e43-596" value="End" style="rounded=0;whiteSpace=wrap;html=1;" parent="1" vertex="1">
          <mxGeometry x="470" y="750" width="50" height="30" as="geometry" />
        </mxCell>
        <mxCell id="q6rLTLklX5a6nk730e43-597" value="N" style="rounded=0;whiteSpace=wrap;html=1;" parent="1" vertex="1">
          <mxGeometry x="520" y="750" width="20" height="30" as="geometry" />
        </mxCell>
        <mxCell id="q6rLTLklX5a6nk730e43-598" value="N" style="rounded=0;whiteSpace=wrap;html=1;" parent="1" vertex="1">
          <mxGeometry x="270" y="750" width="20" height="30" as="geometry" />
        </mxCell>
        <mxCell id="q6rLTLklX5a6nk730e43-599" value="P" style="rounded=0;whiteSpace=wrap;html=1;" parent="1" vertex="1">
          <mxGeometry x="330" y="750" width="20" height="30" as="geometry" />
        </mxCell>
        <mxCell id="q6rLTLklX5a6nk730e43-600" value="N" style="rounded=0;whiteSpace=wrap;html=1;" parent="1" vertex="1">
          <mxGeometry x="400" y="750" width="20" height="30" as="geometry" />
        </mxCell>
        <mxCell id="q6rLTLklX5a6nk730e43-601" value="P" style="rounded=0;whiteSpace=wrap;html=1;" parent="1" vertex="1">
          <mxGeometry x="450" y="750" width="20" height="30" as="geometry" />
        </mxCell>
        <mxCell id="q6rLTLklX5a6nk730e43-602" value="N" style="rounded=0;whiteSpace=wrap;html=1;fillColor=#f8cecc;strokeColor=#b85450;" parent="1" vertex="1">
          <mxGeometry x="270" y="750" width="20" height="30" as="geometry" />
        </mxCell>
        <mxCell id="q6rLTLklX5a6nk730e43-603" value="P" style="rounded=0;whiteSpace=wrap;html=1;fillColor=#f8cecc;strokeColor=#b85450;" parent="1" vertex="1">
          <mxGeometry x="330" y="750" width="20" height="30" as="geometry" />
        </mxCell>
        <mxCell id="q6rLTLklX5a6nk730e43-604" style="edgeStyle=orthogonalEdgeStyle;rounded=0;orthogonalLoop=1;jettySize=auto;html=1;exitX=0.5;exitY=0;exitDx=0;exitDy=0;entryX=0.5;entryY=0;entryDx=0;entryDy=0;" parent="1" source="q6rLTLklX5a6nk730e43-605" target="q6rLTLklX5a6nk730e43-596" edge="1">
          <mxGeometry relative="1" as="geometry">
            <Array as="points">
              <mxPoint x="410" y="730" />
              <mxPoint x="495" y="730" />
            </Array>
          </mxGeometry>
        </mxCell>
        <mxCell id="q6rLTLklX5a6nk730e43-605" value="N" style="rounded=0;whiteSpace=wrap;html=1;fillColor=#d5e8d4;strokeColor=#82b366;" parent="1" vertex="1">
          <mxGeometry x="400" y="750" width="20" height="30" as="geometry" />
        </mxCell>
        <mxCell id="q6rLTLklX5a6nk730e43-606" value="P" style="rounded=0;whiteSpace=wrap;html=1;fillColor=#f8cecc;strokeColor=#b85450;" parent="1" vertex="1">
          <mxGeometry x="450" y="750" width="20" height="30" as="geometry" />
        </mxCell>
        <mxCell id="q6rLTLklX5a6nk730e43-607" value="N" style="rounded=0;whiteSpace=wrap;html=1;fillColor=#f8cecc;strokeColor=#b85450;" parent="1" vertex="1">
          <mxGeometry x="520" y="750" width="20" height="30" as="geometry" />
        </mxCell>
        <mxCell id="q6rLTLklX5a6nk730e43-608" style="edgeStyle=orthogonalEdgeStyle;rounded=0;orthogonalLoop=1;jettySize=auto;html=1;exitX=0.5;exitY=0;exitDx=0;exitDy=0;entryX=0.5;entryY=0;entryDx=0;entryDy=0;" parent="1" source="q6rLTLklX5a6nk730e43-609" target="q6rLTLklX5a6nk730e43-625" edge="1">
          <mxGeometry relative="1" as="geometry">
            <Array as="points">
              <mxPoint x="280" y="680" />
              <mxPoint x="855" y="680" />
            </Array>
          </mxGeometry>
        </mxCell>
        <mxCell id="q6rLTLklX5a6nk730e43-609" value="N" style="rounded=0;whiteSpace=wrap;html=1;fillColor=#d5e8d4;strokeColor=#82b366;" parent="1" vertex="1">
          <mxGeometry x="270" y="750" width="20" height="30" as="geometry" />
        </mxCell>
        <mxCell id="q6rLTLklX5a6nk730e43-610" value="P" style="rounded=0;whiteSpace=wrap;html=1;" parent="1" vertex="1">
          <mxGeometry x="570" y="750" width="20" height="30" as="geometry" />
        </mxCell>
        <mxCell id="q6rLTLklX5a6nk730e43-611" value="" style="rounded=0;whiteSpace=wrap;html=1;" parent="1" vertex="1">
          <mxGeometry x="590" y="750" width="50" height="30" as="geometry" />
        </mxCell>
        <mxCell id="q6rLTLklX5a6nk730e43-612" value="N" style="rounded=0;whiteSpace=wrap;html=1;" parent="1" vertex="1">
          <mxGeometry x="640" y="750" width="20" height="30" as="geometry" />
        </mxCell>
        <mxCell id="q6rLTLklX5a6nk730e43-613" value="P" style="rounded=0;whiteSpace=wrap;html=1;" parent="1" vertex="1">
          <mxGeometry x="690" y="750" width="20" height="30" as="geometry" />
        </mxCell>
        <mxCell id="q6rLTLklX5a6nk730e43-614" value="Head&lt;br&gt;Tail" style="rounded=0;whiteSpace=wrap;html=1;" parent="1" vertex="1">
          <mxGeometry x="710" y="750" width="50" height="30" as="geometry" />
        </mxCell>
        <mxCell id="q6rLTLklX5a6nk730e43-615" value="N" style="rounded=0;whiteSpace=wrap;html=1;" parent="1" vertex="1">
          <mxGeometry x="760" y="750" width="20" height="30" as="geometry" />
        </mxCell>
        <mxCell id="q6rLTLklX5a6nk730e43-616" value="P" style="rounded=0;whiteSpace=wrap;html=1;" parent="1" vertex="1">
          <mxGeometry x="570" y="750" width="20" height="30" as="geometry" />
        </mxCell>
        <mxCell id="q6rLTLklX5a6nk730e43-617" value="N" style="rounded=0;whiteSpace=wrap;html=1;" parent="1" vertex="1">
          <mxGeometry x="640" y="750" width="20" height="30" as="geometry" />
        </mxCell>
        <mxCell id="q6rLTLklX5a6nk730e43-618" value="P" style="rounded=0;whiteSpace=wrap;html=1;" parent="1" vertex="1">
          <mxGeometry x="690" y="750" width="20" height="30" as="geometry" />
        </mxCell>
        <mxCell id="q6rLTLklX5a6nk730e43-619" value="P" style="rounded=0;whiteSpace=wrap;html=1;fillColor=#f8cecc;strokeColor=#b85450;" parent="1" vertex="1">
          <mxGeometry x="570" y="750" width="20" height="30" as="geometry" />
        </mxCell>
        <mxCell id="q6rLTLklX5a6nk730e43-620" style="edgeStyle=orthogonalEdgeStyle;rounded=0;orthogonalLoop=1;jettySize=auto;html=1;exitX=0.5;exitY=0;exitDx=0;exitDy=0;entryX=0.5;entryY=0;entryDx=0;entryDy=0;" parent="1" source="q6rLTLklX5a6nk730e43-621" target="q6rLTLklX5a6nk730e43-590" edge="1">
          <mxGeometry relative="1" as="geometry">
            <Array as="points">
              <mxPoint x="650" y="700" />
              <mxPoint x="245" y="700" />
            </Array>
          </mxGeometry>
        </mxCell>
        <mxCell id="q6rLTLklX5a6nk730e43-621" value="N" style="rounded=0;whiteSpace=wrap;html=1;fillColor=#d5e8d4;strokeColor=#82b366;" parent="1" vertex="1">
          <mxGeometry x="640" y="750" width="20" height="30" as="geometry" />
        </mxCell>
        <mxCell id="q6rLTLklX5a6nk730e43-622" value="P" style="rounded=0;whiteSpace=wrap;html=1;fillColor=#f8cecc;strokeColor=#b85450;" parent="1" vertex="1">
          <mxGeometry x="690" y="750" width="20" height="30" as="geometry" />
        </mxCell>
        <mxCell id="q6rLTLklX5a6nk730e43-623" value="N" style="rounded=0;whiteSpace=wrap;html=1;fillColor=#d5e8d4;strokeColor=#82b366;" parent="1" vertex="1">
          <mxGeometry x="760" y="750" width="20" height="30" as="geometry" />
        </mxCell>
        <mxCell id="q6rLTLklX5a6nk730e43-624" value="P" style="rounded=0;whiteSpace=wrap;html=1;" parent="1" vertex="1">
          <mxGeometry x="810" y="750" width="20" height="30" as="geometry" />
        </mxCell>
        <mxCell id="q6rLTLklX5a6nk730e43-625" value="" style="rounded=0;whiteSpace=wrap;html=1;" parent="1" vertex="1">
          <mxGeometry x="830" y="750" width="50" height="30" as="geometry" />
        </mxCell>
        <mxCell id="q6rLTLklX5a6nk730e43-626" value="N" style="rounded=0;whiteSpace=wrap;html=1;" parent="1" vertex="1">
          <mxGeometry x="880" y="750" width="20" height="30" as="geometry" />
        </mxCell>
        <mxCell id="q6rLTLklX5a6nk730e43-627" value="P" style="rounded=0;whiteSpace=wrap;html=1;" parent="1" vertex="1">
          <mxGeometry x="930" y="750" width="20" height="30" as="geometry" />
        </mxCell>
        <mxCell id="q6rLTLklX5a6nk730e43-628" value="" style="rounded=0;whiteSpace=wrap;html=1;" parent="1" vertex="1">
          <mxGeometry x="950" y="750" width="50" height="30" as="geometry" />
        </mxCell>
        <mxCell id="q6rLTLklX5a6nk730e43-629" value="N" style="rounded=0;whiteSpace=wrap;html=1;" parent="1" vertex="1">
          <mxGeometry x="1000" y="750" width="20" height="30" as="geometry" />
        </mxCell>
        <mxCell id="q6rLTLklX5a6nk730e43-630" value="P" style="rounded=0;whiteSpace=wrap;html=1;" parent="1" vertex="1">
          <mxGeometry x="810" y="750" width="20" height="30" as="geometry" />
        </mxCell>
        <mxCell id="q6rLTLklX5a6nk730e43-631" value="N" style="rounded=0;whiteSpace=wrap;html=1;" parent="1" vertex="1">
          <mxGeometry x="880" y="750" width="20" height="30" as="geometry" />
        </mxCell>
        <mxCell id="q6rLTLklX5a6nk730e43-632" value="P" style="rounded=0;whiteSpace=wrap;html=1;" parent="1" vertex="1">
          <mxGeometry x="930" y="750" width="20" height="30" as="geometry" />
        </mxCell>
        <mxCell id="q6rLTLklX5a6nk730e43-633" value="P" style="rounded=0;whiteSpace=wrap;html=1;fillColor=#f8cecc;strokeColor=#b85450;" parent="1" vertex="1">
          <mxGeometry x="810" y="750" width="20" height="30" as="geometry" />
        </mxCell>
        <mxCell id="q6rLTLklX5a6nk730e43-634" style="edgeStyle=orthogonalEdgeStyle;rounded=0;orthogonalLoop=1;jettySize=auto;html=1;exitX=0.5;exitY=0;exitDx=0;exitDy=0;entryX=0.5;entryY=0;entryDx=0;entryDy=0;" parent="1" source="q6rLTLklX5a6nk730e43-623" target="q6rLTLklX5a6nk730e43-628" edge="1">
          <mxGeometry relative="1" as="geometry" />
        </mxCell>
        <mxCell id="q6rLTLklX5a6nk730e43-635" style="edgeStyle=orthogonalEdgeStyle;rounded=0;orthogonalLoop=1;jettySize=auto;html=1;exitX=0.5;exitY=0;exitDx=0;exitDy=0;entryX=0.5;entryY=0;entryDx=0;entryDy=0;" parent="1" source="q6rLTLklX5a6nk730e43-636" target="q6rLTLklX5a6nk730e43-593" edge="1">
          <mxGeometry relative="1" as="geometry">
            <Array as="points">
              <mxPoint x="890" y="660" />
              <mxPoint x="375" y="660" />
            </Array>
          </mxGeometry>
        </mxCell>
        <mxCell id="q6rLTLklX5a6nk730e43-636" value="N" style="rounded=0;whiteSpace=wrap;html=1;fillColor=#d5e8d4;strokeColor=#82b366;" parent="1" vertex="1">
          <mxGeometry x="880" y="750" width="20" height="30" as="geometry" />
        </mxCell>
        <mxCell id="q6rLTLklX5a6nk730e43-637" value="P" style="rounded=0;whiteSpace=wrap;html=1;fillColor=#f8cecc;strokeColor=#b85450;" parent="1" vertex="1">
          <mxGeometry x="930" y="750" width="20" height="30" as="geometry" />
        </mxCell>
        <mxCell id="q6rLTLklX5a6nk730e43-638" style="edgeStyle=orthogonalEdgeStyle;rounded=0;orthogonalLoop=1;jettySize=auto;html=1;exitX=0.5;exitY=0;exitDx=0;exitDy=0;entryX=0.5;entryY=0;entryDx=0;entryDy=0;" parent="1" source="q6rLTLklX5a6nk730e43-639" target="q6rLTLklX5a6nk730e43-611" edge="1">
          <mxGeometry relative="1" as="geometry">
            <Array as="points">
              <mxPoint x="1010" y="710" />
              <mxPoint x="615" y="710" />
            </Array>
          </mxGeometry>
        </mxCell>
        <mxCell id="q6rLTLklX5a6nk730e43-639" value="N" style="rounded=0;whiteSpace=wrap;html=1;fillColor=#d5e8d4;strokeColor=#82b366;" parent="1" vertex="1">
          <mxGeometry x="1000" y="750" width="20" height="30" as="geometry" />
        </mxCell>
        <mxCell id="1rDY8RAE4aDoJ-GCmZvG-225" value="" style="rounded=1;whiteSpace=wrap;html=1;" parent="1" vertex="1">
          <mxGeometry x="180" y="240" width="870" height="180" as="geometry" />
        </mxCell>
        <mxCell id="1rDY8RAE4aDoJ-GCmZvG-226" value="P" style="rounded=0;whiteSpace=wrap;html=1;fillColor=#f8cecc;strokeColor=#b85450;" parent="1" vertex="1">
          <mxGeometry x="200" y="350" width="20" height="30" as="geometry" />
        </mxCell>
        <mxCell id="1rDY8RAE4aDoJ-GCmZvG-227" value="" style="rounded=0;whiteSpace=wrap;html=1;" parent="1" vertex="1">
          <mxGeometry x="220" y="350" width="50" height="30" as="geometry" />
        </mxCell>
        <mxCell id="1rDY8RAE4aDoJ-GCmZvG-228" value="N" style="rounded=0;whiteSpace=wrap;html=1;" parent="1" vertex="1">
          <mxGeometry x="270" y="350" width="20" height="30" as="geometry" />
        </mxCell>
        <mxCell id="1rDY8RAE4aDoJ-GCmZvG-229" value="P" style="rounded=0;whiteSpace=wrap;html=1;" parent="1" vertex="1">
          <mxGeometry x="330" y="350" width="20" height="30" as="geometry" />
        </mxCell>
        <mxCell id="1rDY8RAE4aDoJ-GCmZvG-230" value="End" style="rounded=0;whiteSpace=wrap;html=1;" parent="1" vertex="1">
          <mxGeometry x="350" y="350" width="50" height="30" as="geometry" />
        </mxCell>
        <mxCell id="1rDY8RAE4aDoJ-GCmZvG-231" value="N" style="rounded=0;whiteSpace=wrap;html=1;" parent="1" vertex="1">
          <mxGeometry x="400" y="350" width="20" height="30" as="geometry" />
        </mxCell>
        <mxCell id="1rDY8RAE4aDoJ-GCmZvG-232" value="P" style="rounded=0;whiteSpace=wrap;html=1;" parent="1" vertex="1">
          <mxGeometry x="450" y="350" width="20" height="30" as="geometry" />
        </mxCell>
        <mxCell id="1rDY8RAE4aDoJ-GCmZvG-233" value="Head" style="rounded=0;whiteSpace=wrap;html=1;fillColor=#dae8fc;strokeColor=#6c8ebf;" parent="1" vertex="1">
          <mxGeometry x="470" y="350" width="50" height="30" as="geometry" />
        </mxCell>
        <mxCell id="1rDY8RAE4aDoJ-GCmZvG-234" value="N" style="rounded=0;whiteSpace=wrap;html=1;" parent="1" vertex="1">
          <mxGeometry x="520" y="350" width="20" height="30" as="geometry" />
        </mxCell>
        <mxCell id="1rDY8RAE4aDoJ-GCmZvG-235" value="N" style="rounded=0;whiteSpace=wrap;html=1;" parent="1" vertex="1">
          <mxGeometry x="270" y="350" width="20" height="30" as="geometry" />
        </mxCell>
        <mxCell id="1rDY8RAE4aDoJ-GCmZvG-236" value="P" style="rounded=0;whiteSpace=wrap;html=1;" parent="1" vertex="1">
          <mxGeometry x="330" y="350" width="20" height="30" as="geometry" />
        </mxCell>
        <mxCell id="1rDY8RAE4aDoJ-GCmZvG-237" value="N" style="rounded=0;whiteSpace=wrap;html=1;" parent="1" vertex="1">
          <mxGeometry x="400" y="350" width="20" height="30" as="geometry" />
        </mxCell>
        <mxCell id="1rDY8RAE4aDoJ-GCmZvG-238" value="P" style="rounded=0;whiteSpace=wrap;html=1;" parent="1" vertex="1">
          <mxGeometry x="450" y="350" width="20" height="30" as="geometry" />
        </mxCell>
        <mxCell id="1rDY8RAE4aDoJ-GCmZvG-239" value="N" style="rounded=0;whiteSpace=wrap;html=1;fillColor=#f8cecc;strokeColor=#b85450;" parent="1" vertex="1">
          <mxGeometry x="270" y="350" width="20" height="30" as="geometry" />
        </mxCell>
        <mxCell id="1rDY8RAE4aDoJ-GCmZvG-240" value="P" style="rounded=0;whiteSpace=wrap;html=1;fillColor=#f8cecc;strokeColor=#b85450;" parent="1" vertex="1">
          <mxGeometry x="330" y="350" width="20" height="30" as="geometry" />
        </mxCell>
        <mxCell id="1rDY8RAE4aDoJ-GCmZvG-242" value="N" style="rounded=0;whiteSpace=wrap;html=1;fillColor=#f8cecc;strokeColor=#b85450;" parent="1" vertex="1">
          <mxGeometry x="400" y="350" width="20" height="30" as="geometry" />
        </mxCell>
        <mxCell id="1rDY8RAE4aDoJ-GCmZvG-244" value="P" style="rounded=0;whiteSpace=wrap;html=1;fillColor=#f8cecc;strokeColor=#b85450;" parent="1" vertex="1">
          <mxGeometry x="450" y="350" width="20" height="30" as="geometry" />
        </mxCell>
        <mxCell id="1rDY8RAE4aDoJ-GCmZvG-245" style="edgeStyle=orthogonalEdgeStyle;rounded=0;orthogonalLoop=1;jettySize=auto;html=1;exitX=0.5;exitY=0;exitDx=0;exitDy=0;entryX=0.5;entryY=0;entryDx=0;entryDy=0;" parent="1" source="1rDY8RAE4aDoJ-GCmZvG-246" target="1rDY8RAE4aDoJ-GCmZvG-253" edge="1">
          <mxGeometry relative="1" as="geometry" />
        </mxCell>
        <mxCell id="1rDY8RAE4aDoJ-GCmZvG-246" value="N" style="rounded=0;whiteSpace=wrap;html=1;fillColor=#d5e8d4;strokeColor=#82b366;" parent="1" vertex="1">
          <mxGeometry x="520" y="350" width="20" height="30" as="geometry" />
        </mxCell>
        <mxCell id="1rDY8RAE4aDoJ-GCmZvG-247" style="edgeStyle=orthogonalEdgeStyle;rounded=0;orthogonalLoop=1;jettySize=auto;html=1;exitX=0.5;exitY=0;exitDx=0;exitDy=0;entryX=0.5;entryY=0;entryDx=0;entryDy=0;fillColor=#f8cecc;strokeColor=#000000;" parent="1" source="1rDY8RAE4aDoJ-GCmZvG-248" target="1rDY8RAE4aDoJ-GCmZvG-265" edge="1">
          <mxGeometry relative="1" as="geometry">
            <Array as="points">
              <mxPoint x="280" y="280" />
              <mxPoint x="855" y="280" />
            </Array>
          </mxGeometry>
        </mxCell>
        <mxCell id="1rDY8RAE4aDoJ-GCmZvG-248" value="N" style="rounded=0;whiteSpace=wrap;html=1;fillColor=#d5e8d4;strokeColor=#82b366;" parent="1" vertex="1">
          <mxGeometry x="270" y="350" width="20" height="30" as="geometry" />
        </mxCell>
        <mxCell id="1rDY8RAE4aDoJ-GCmZvG-249" value="P" style="rounded=0;whiteSpace=wrap;html=1;" parent="1" vertex="1">
          <mxGeometry x="570" y="350" width="20" height="30" as="geometry" />
        </mxCell>
        <mxCell id="1rDY8RAE4aDoJ-GCmZvG-250" value="" style="rounded=0;whiteSpace=wrap;html=1;" parent="1" vertex="1">
          <mxGeometry x="590" y="350" width="50" height="30" as="geometry" />
        </mxCell>
        <mxCell id="1rDY8RAE4aDoJ-GCmZvG-251" value="N" style="rounded=0;whiteSpace=wrap;html=1;" parent="1" vertex="1">
          <mxGeometry x="640" y="350" width="20" height="30" as="geometry" />
        </mxCell>
        <mxCell id="1rDY8RAE4aDoJ-GCmZvG-252" value="P" style="rounded=0;whiteSpace=wrap;html=1;" parent="1" vertex="1">
          <mxGeometry x="690" y="350" width="20" height="30" as="geometry" />
        </mxCell>
        <mxCell id="1rDY8RAE4aDoJ-GCmZvG-253" value="Tail" style="rounded=0;whiteSpace=wrap;html=1;fillColor=#dae8fc;strokeColor=#6c8ebf;" parent="1" vertex="1">
          <mxGeometry x="710" y="350" width="50" height="30" as="geometry" />
        </mxCell>
        <mxCell id="1rDY8RAE4aDoJ-GCmZvG-254" value="N" style="rounded=0;whiteSpace=wrap;html=1;" parent="1" vertex="1">
          <mxGeometry x="760" y="350" width="20" height="30" as="geometry" />
        </mxCell>
        <mxCell id="1rDY8RAE4aDoJ-GCmZvG-255" value="P" style="rounded=0;whiteSpace=wrap;html=1;" parent="1" vertex="1">
          <mxGeometry x="570" y="350" width="20" height="30" as="geometry" />
        </mxCell>
        <mxCell id="1rDY8RAE4aDoJ-GCmZvG-256" value="N" style="rounded=0;whiteSpace=wrap;html=1;" parent="1" vertex="1">
          <mxGeometry x="640" y="350" width="20" height="30" as="geometry" />
        </mxCell>
        <mxCell id="1rDY8RAE4aDoJ-GCmZvG-257" value="P" style="rounded=0;whiteSpace=wrap;html=1;" parent="1" vertex="1">
          <mxGeometry x="690" y="350" width="20" height="30" as="geometry" />
        </mxCell>
        <mxCell id="1rDY8RAE4aDoJ-GCmZvG-258" value="P" style="rounded=0;whiteSpace=wrap;html=1;fillColor=#f8cecc;strokeColor=#b85450;" parent="1" vertex="1">
          <mxGeometry x="570" y="350" width="20" height="30" as="geometry" />
        </mxCell>
        <mxCell id="1rDY8RAE4aDoJ-GCmZvG-259" style="edgeStyle=orthogonalEdgeStyle;rounded=0;orthogonalLoop=1;jettySize=auto;html=1;exitX=0.5;exitY=0;exitDx=0;exitDy=0;entryX=0.5;entryY=0;entryDx=0;entryDy=0;" parent="1" source="1rDY8RAE4aDoJ-GCmZvG-260" target="1rDY8RAE4aDoJ-GCmZvG-227" edge="1">
          <mxGeometry relative="1" as="geometry">
            <Array as="points">
              <mxPoint x="650" y="300" />
              <mxPoint x="245" y="300" />
            </Array>
          </mxGeometry>
        </mxCell>
        <mxCell id="1rDY8RAE4aDoJ-GCmZvG-260" value="N" style="rounded=0;whiteSpace=wrap;html=1;fillColor=#d5e8d4;strokeColor=#82b366;" parent="1" vertex="1">
          <mxGeometry x="640" y="350" width="20" height="30" as="geometry" />
        </mxCell>
        <mxCell id="1rDY8RAE4aDoJ-GCmZvG-261" style="edgeStyle=orthogonalEdgeStyle;rounded=0;orthogonalLoop=1;jettySize=auto;html=1;exitX=0.5;exitY=1;exitDx=0;exitDy=0;entryX=0.5;entryY=1;entryDx=0;entryDy=0;" parent="1" source="1rDY8RAE4aDoJ-GCmZvG-262" target="1rDY8RAE4aDoJ-GCmZvG-233" edge="1">
          <mxGeometry relative="1" as="geometry" />
        </mxCell>
        <mxCell id="1rDY8RAE4aDoJ-GCmZvG-262" value="P" style="rounded=0;whiteSpace=wrap;html=1;fillColor=#d5e8d4;strokeColor=#82b366;" parent="1" vertex="1">
          <mxGeometry x="690" y="350" width="20" height="30" as="geometry" />
        </mxCell>
        <mxCell id="1rDY8RAE4aDoJ-GCmZvG-263" value="N" style="rounded=0;whiteSpace=wrap;html=1;fillColor=#d5e8d4;strokeColor=#82b366;" parent="1" vertex="1">
          <mxGeometry x="760" y="350" width="20" height="30" as="geometry" />
        </mxCell>
        <mxCell id="1rDY8RAE4aDoJ-GCmZvG-264" value="P" style="rounded=0;whiteSpace=wrap;html=1;" parent="1" vertex="1">
          <mxGeometry x="810" y="350" width="20" height="30" as="geometry" />
        </mxCell>
        <mxCell id="1rDY8RAE4aDoJ-GCmZvG-265" value="" style="rounded=0;whiteSpace=wrap;html=1;" parent="1" vertex="1">
          <mxGeometry x="830" y="350" width="50" height="30" as="geometry" />
        </mxCell>
        <mxCell id="1rDY8RAE4aDoJ-GCmZvG-266" value="N" style="rounded=0;whiteSpace=wrap;html=1;" parent="1" vertex="1">
          <mxGeometry x="880" y="350" width="20" height="30" as="geometry" />
        </mxCell>
        <mxCell id="1rDY8RAE4aDoJ-GCmZvG-267" value="P" style="rounded=0;whiteSpace=wrap;html=1;" parent="1" vertex="1">
          <mxGeometry x="930" y="350" width="20" height="30" as="geometry" />
        </mxCell>
        <mxCell id="1rDY8RAE4aDoJ-GCmZvG-268" value="" style="rounded=0;whiteSpace=wrap;html=1;" parent="1" vertex="1">
          <mxGeometry x="950" y="350" width="50" height="30" as="geometry" />
        </mxCell>
        <mxCell id="1rDY8RAE4aDoJ-GCmZvG-269" value="N" style="rounded=0;whiteSpace=wrap;html=1;" parent="1" vertex="1">
          <mxGeometry x="1000" y="350" width="20" height="30" as="geometry" />
        </mxCell>
        <mxCell id="1rDY8RAE4aDoJ-GCmZvG-270" value="P" style="rounded=0;whiteSpace=wrap;html=1;" parent="1" vertex="1">
          <mxGeometry x="810" y="350" width="20" height="30" as="geometry" />
        </mxCell>
        <mxCell id="1rDY8RAE4aDoJ-GCmZvG-271" value="N" style="rounded=0;whiteSpace=wrap;html=1;" parent="1" vertex="1">
          <mxGeometry x="880" y="350" width="20" height="30" as="geometry" />
        </mxCell>
        <mxCell id="1rDY8RAE4aDoJ-GCmZvG-272" value="P" style="rounded=0;whiteSpace=wrap;html=1;" parent="1" vertex="1">
          <mxGeometry x="930" y="350" width="20" height="30" as="geometry" />
        </mxCell>
        <mxCell id="1rDY8RAE4aDoJ-GCmZvG-273" value="P" style="rounded=0;whiteSpace=wrap;html=1;fillColor=#f8cecc;strokeColor=#b85450;" parent="1" vertex="1">
          <mxGeometry x="810" y="350" width="20" height="30" as="geometry" />
        </mxCell>
        <mxCell id="1rDY8RAE4aDoJ-GCmZvG-274" style="edgeStyle=orthogonalEdgeStyle;rounded=0;orthogonalLoop=1;jettySize=auto;html=1;exitX=0.5;exitY=0;exitDx=0;exitDy=0;entryX=0.5;entryY=0;entryDx=0;entryDy=0;fillColor=#d5e8d4;strokeColor=#82b366;" parent="1" source="1rDY8RAE4aDoJ-GCmZvG-263" target="1rDY8RAE4aDoJ-GCmZvG-268" edge="1">
          <mxGeometry relative="1" as="geometry" />
        </mxCell>
        <mxCell id="1rDY8RAE4aDoJ-GCmZvG-279" style="edgeStyle=orthogonalEdgeStyle;rounded=0;orthogonalLoop=1;jettySize=auto;html=1;exitX=0.5;exitY=0;exitDx=0;exitDy=0;entryX=0.5;entryY=0;entryDx=0;entryDy=0;strokeColor=#b85450;fillColor=#f8cecc;" parent="1" source="1rDY8RAE4aDoJ-GCmZvG-275" target="1rDY8RAE4aDoJ-GCmZvG-230" edge="1">
          <mxGeometry relative="1" as="geometry">
            <Array as="points">
              <mxPoint x="890" y="260" />
              <mxPoint x="375" y="260" />
            </Array>
          </mxGeometry>
        </mxCell>
        <mxCell id="1rDY8RAE4aDoJ-GCmZvG-275" value="N" style="rounded=0;whiteSpace=wrap;html=1;fillColor=#d5e8d4;strokeColor=#82b366;" parent="1" vertex="1">
          <mxGeometry x="880" y="350" width="20" height="30" as="geometry" />
        </mxCell>
        <mxCell id="1rDY8RAE4aDoJ-GCmZvG-276" value="P" style="rounded=0;whiteSpace=wrap;html=1;fillColor=#f8cecc;strokeColor=#b85450;" parent="1" vertex="1">
          <mxGeometry x="930" y="350" width="20" height="30" as="geometry" />
        </mxCell>
        <mxCell id="1rDY8RAE4aDoJ-GCmZvG-277" style="edgeStyle=orthogonalEdgeStyle;rounded=0;orthogonalLoop=1;jettySize=auto;html=1;exitX=0.5;exitY=0;exitDx=0;exitDy=0;entryX=0.5;entryY=0;entryDx=0;entryDy=0;" parent="1" source="1rDY8RAE4aDoJ-GCmZvG-278" target="1rDY8RAE4aDoJ-GCmZvG-250" edge="1">
          <mxGeometry relative="1" as="geometry">
            <Array as="points">
              <mxPoint x="1010" y="310" />
              <mxPoint x="615" y="310" />
            </Array>
          </mxGeometry>
        </mxCell>
        <mxCell id="1rDY8RAE4aDoJ-GCmZvG-278" value="N" style="rounded=0;whiteSpace=wrap;html=1;fillColor=#d5e8d4;strokeColor=#82b366;" parent="1" vertex="1">
          <mxGeometry x="1000" y="350" width="20" height="30" as="geometry" />
        </mxCell>
        <mxCell id="1rDY8RAE4aDoJ-GCmZvG-281" value="Remove element &lt;br&gt;from head, normal &lt;br&gt;remove Count = 3" style="text;html=1;align=center;verticalAlign=middle;resizable=0;points=[];autosize=1;strokeColor=none;fillColor=none;" parent="1" vertex="1">
          <mxGeometry x="40" y="100" width="120" height="60" as="geometry" />
        </mxCell>
        <mxCell id="1rDY8RAE4aDoJ-GCmZvG-282" value="Remove element &lt;br&gt;from head, index&lt;br&gt;match Count = 2" style="text;html=1;align=center;verticalAlign=middle;resizable=0;points=[];autosize=1;strokeColor=none;fillColor=none;" parent="1" vertex="1">
          <mxGeometry x="45" y="300" width="110" height="60" as="geometry" />
        </mxCell>
        <mxCell id="1rDY8RAE4aDoJ-GCmZvG-283" value="Remove element &lt;br&gt;from head, index&lt;br&gt;match Count = 1" style="text;html=1;align=center;verticalAlign=middle;resizable=0;points=[];autosize=1;strokeColor=none;fillColor=none;" parent="1" vertex="1">
          <mxGeometry x="40" y="500" width="110" height="60" as="geometry" />
        </mxCell>
        <mxCell id="1rDY8RAE4aDoJ-GCmZvG-284" value="Remove element &lt;br&gt;from head, index&lt;br&gt;match Count = 0" style="text;html=1;align=center;verticalAlign=middle;resizable=0;points=[];autosize=1;strokeColor=none;fillColor=none;" parent="1" vertex="1">
          <mxGeometry x="50" y="700" width="110" height="60" as="geometry" />
        </mxCell>
      </root>
    </mxGraphModel>
  </diagram>
</mxfile>
